<?xml version="1.0" encoding="UTF-8"?><svg width="34px" height="24px" viewBox="0 0 34 24" version="1.1" xmlns="http://www.w3.org/2000/svg" xmlns:xlink="http://www.w3.org/1999/xlink"><title>arrow</title><g id="Desktop-Web" stroke="none" stroke-width="1" fill="none" fill-rule="evenodd"><g id="photoaid_start_desktop" transform="translate(-1018.000000, -6500.000000)" fill="#365C6A" fill-rule="nonzero"><path d="M1038.85708,6499.09063 C1039.30681,6499.07172 1040.50753,6499.04271 1042.45929,6499.00361 C1044.41104,6498.96451 1045.91758,6498.91677 1046.97895,6498.86039 C1047.01492,6498.86035 1047.03741,6498.85573 1047.04642,6498.84654 C1047.05542,6498.83735 1047.07342,6498.82814 1047.10042,6498.81893 C1047.12741,6498.80972 1047.18139,6498.79588 1047.26236,6498.77742 C1047.34333,6498.75896 1047.45578,6498.73128 1047.59973,6498.69438 C1048.58937,6498.45448 1049.30856,6498.71984 1049.75734,6499.49046 C1050.0625,6500.02256 1050.07984,6500.56418 1049.80936,6501.11534 C1049.70112,6501.37253 1049.52096,6501.61144 1049.26886,6501.83208 L1048.89072,6502.16304 C1047.80927,6503.96374 1046.84432,6506.14068 1045.99582,6508.6939 C1045.88745,6509.06126 1045.66228,6509.33235 1045.32029,6509.5072 C1044.97831,6509.68205 1044.62751,6509.71002 1044.26789,6509.59111 C1043.90827,6509.4722 1043.64323,6509.23842 1043.47276,6508.88977 C1043.30229,6508.54112 1043.28024,6508.18311 1043.4066,6507.81573 C1043.89406,6506.32789 1044.41734,6504.95937 1044.97647,6503.71014 C1039.12635,6507.04063 1033.46372,6511.59184 1027.98842,6517.36389 C1026.72765,6518.70579 1025.66947,6519.87299 1024.81384,6520.86554 C1023.95822,6521.85808 1023.19699,6522.89639 1022.53013,6523.98051 C1022.3139,6524.29291 1022.02136,6524.49065 1021.6525,6524.57372 C1021.28365,6524.6568 1020.94196,6524.59295 1020.62742,6524.38218 C1020.31288,6524.17141 1020.11536,6523.87788 1020.03487,6523.50158 C1019.95437,6523.12527 1020.01325,6522.77176 1020.21152,6522.44101 C1020.73414,6521.63249 1021.34675,6520.78255 1022.04935,6519.89118 C1022.75195,6518.99982 1023.37343,6518.25085 1023.9138,6517.64428 L1025.99406,6515.43842 C1031.4513,6509.72147 1037.01498,6505.17956 1042.68527,6501.81257 C1040.77848,6501.85161 1039.53729,6501.88067 1038.96165,6501.89973 C1038.56588,6501.91858 1038.23326,6501.79505 1037.96375,6501.52914 C1037.69425,6501.26323 1037.55074,6500.93291 1037.53323,6500.53817 C1037.51571,6500.14343 1037.63753,6499.8082 1037.89869,6499.53246 C1038.15985,6499.25673 1038.47931,6499.10945 1038.85708,6499.09063 Z" id="arrow" transform="translate(1035.000000, 6511.608953) rotate(75.000000) translate(-1035.000000, -6511.608953) "></path></g></g></svg>