<?xml version="1.0" encoding="UTF-8"?>
<svg width="172px" height="32px" viewBox="0 0 172 32" version="1.1" xmlns="http://www.w3.org/2000/svg" xmlns:xlink="http://www.w3.org/1999/xlink">
    <title>LOGO</title>
    <g id="Desktop-Web" stroke="none" stroke-width="1" fill="none" fill-rule="evenodd">
        <g id="photoaid_start_dokument_wgraj" transform="translate(-634.000000, -56.000000)" fill="#FFFFFF">
            <path d="M653.806426,56.9904622 L655.178185,58.3805692 C655.942034,59.1543656 657.38798,59.5575863 658.415449,59.2817173 L662.865291,58.0892745 C664.869809,57.5540385 666.957158,58.8304258 667.530135,60.9516394 L671.61732,76.1108013 C672.187415,78.2223291 670.98276,80.378699 668.926022,80.9286432 L642.983615,87.8720036 C640.928318,88.4205129 638.799913,87.1556052 638.229817,85.0440775 L634.142272,69.8863505 C633.570016,67.7644194 634.775752,65.6058971 636.831409,65.0563116 L641.428907,63.8244077 C642.456735,63.54818 643.514455,62.4755555 643.788159,61.4248139 L644.264619,59.538932 C644.535801,58.4863967 645.584158,57.4170009 646.613427,57.1407731 L650.567722,56.0864442 C651.595911,55.8112927 653.041497,56.2145134 653.806426,56.9904622 Z M689.464551,65.3640364 C693.755573,65.3640364 697.117084,68.7002933 697.117084,72.9595812 C697.117084,77.2188691 693.755573,80.5554847 689.464551,80.5554847 C687.458233,80.5554847 685.660433,79.8247368 684.305961,78.6204557 L684.305961,78.6204557 L684.305961,87.2843202 L681.785008,87.2843202 L681.785008,73.0941077 L681.813098,72.3913413 C682.099046,68.4086399 685.352877,65.3640364 689.464551,65.3640364 Z M650.466884,64.4213466 C645.87983,65.617018 643.18349,70.3182702 644.454051,74.9061615 C645.728212,79.5062498 650.487412,82.2520251 655.074466,81.0577887 C659.6626,79.8621172 662.36038,75.1734208 661.086579,70.5729737 C659.816378,65.9861586 655.054298,63.2256752 650.466884,64.4213466 Z M721.73329,65.3639288 C726.024313,65.3639288 729.385824,68.7005444 729.385824,72.9598323 C729.385824,77.2191202 726.024313,80.5553771 721.73329,80.5553771 C717.427142,80.5553771 714.053747,77.2191202 714.053747,72.9598323 C714.053747,68.7005444 717.427142,65.3639288 721.73329,65.3639288 Z M748.522306,65.3639288 C752.813689,65.3639288 756.175199,68.7005444 756.175199,72.9598323 C756.175199,77.2191202 752.813689,80.5553771 748.522306,80.5553771 C744.216158,80.5553771 740.842763,77.2191202 740.842763,72.9598323 C740.842763,68.7005444 744.216158,65.3639288 748.522306,65.3639288 Z M735.637571,58.8699228 L735.637571,65.6611785 L739.68226,65.6611785 L739.68226,68.062566 L735.637571,68.062566 L735.637571,76.3128063 C735.637571,77.8083821 736.094944,78.0612919 737.469584,78.0612919 C737.958288,78.0612919 738.539908,78.016091 739.094878,77.9673027 L739.094878,77.9673027 L739.68226,77.9156446 L739.68226,80.2592753 L739.223807,80.3288703 C738.539548,80.4332629 737.913271,80.4088688 737.362983,80.4088688 C735.984022,80.4088688 734.971679,80.0881576 734.267973,79.4284397 C733.531135,78.737153 733.172799,77.7179803 733.172799,76.3128063 L733.172799,76.3128063 L733.172799,68.062566 L730.18655,68.062566 L730.18655,65.6611785 L733.172799,65.6611785 L733.172799,60.1473863 L735.637571,58.8699228 Z M701.743465,58.8397171 L701.743465,67.0734555 C702.819192,65.9491728 704.284586,65.3637136 706.062218,65.3637136 C709.589752,65.3637136 711.869053,67.6980171 711.869053,71.3105017 L711.869053,71.3105017 L711.869053,80.2581273 L709.403921,80.2581273 L709.403921,71.3105017 C709.403921,69.0400534 708.146326,67.7381957 705.953817,67.7381957 C703.31762,67.7381957 701.743465,69.5483841 701.743465,72.581508 L701.743465,72.581508 L701.743465,80.2581273 L699.305343,80.2581273 L699.305343,58.8397171 L701.743465,58.8397171 Z M783.324783,65.7892477 L783.324783,80.2581991 L779.755474,80.2581991 L779.755474,65.7892477 L783.324783,65.7892477 Z M795.813549,58.8666941 C801.620744,58.8666941 806,63.4646301 806,69.5620879 C806,75.6599044 801.620744,80.2581991 795.813549,80.2581991 L795.813549,80.2581991 L787.472075,80.2581991 L787.472075,58.8666941 Z M768.48721,58.8664789 L776.802034,80.2579839 L772.90392,80.2579839 L771.030852,75.3737756 L762.871607,75.3737756 L760.997819,80.2579839 L757.098625,80.2579839 L765.443339,58.8664789 L768.48721,58.8664789 Z M689.464551,67.7381598 C686.540606,67.7381598 684.25014,70.0315674 684.25014,72.9595812 C684.25014,75.887595 686.540606,78.1813613 689.464551,78.1813613 C692.373731,78.1813613 694.652312,75.887595 694.652312,72.9595812 C694.652312,70.0315674 692.373731,67.7381598 689.464551,67.7381598 Z M721.73329,67.7380522 C718.809345,67.7380522 716.518879,70.0318185 716.518879,72.9598323 C716.518879,75.8878461 718.809345,78.1812536 721.73329,78.1812536 C724.64247,78.1812536 726.921052,75.8878461 726.921052,72.9598323 C726.921052,70.0318185 724.64247,67.7380522 721.73329,67.7380522 Z M748.522306,67.7380522 C745.598361,67.7380522 743.307895,70.0318185 743.307895,72.9598323 C743.307895,75.8878461 745.598361,78.1812536 748.522306,78.1812536 C751.431486,78.1812536 753.710067,75.8878461 753.710067,72.9598323 C753.710067,70.0318185 751.431486,67.7380522 748.522306,67.7380522 Z M657.25401,71.5781556 C657.938989,74.0484206 656.483318,76.5875632 654.014585,77.2304204 C651.546212,77.871484 648.971598,76.3794956 648.286259,73.9117417 C647.60128,71.4407592 649.057671,68.9008992 651.526044,68.2587594 C653.994057,67.6169784 656.56759,69.1078906 657.25401,71.5781556 Z M795.813549,62.4221395 L791.124936,62.4221395 L791.124936,76.7027538 L795.813549,76.7027538 C799.615146,76.7027538 802.374869,73.6997639 802.374869,69.5620879 C802.374869,65.4251294 799.615146,62.4221395 795.813549,62.4221395 L795.813549,62.4221395 Z M766.964554,64.7931778 L764.261733,71.8179715 L769.668096,71.8179715 L766.964554,64.7931778 Z M781.544486,58.8665865 C782.863305,58.8665865 783.896176,59.8922165 783.896176,61.2012488 C783.896176,62.5099225 782.863305,63.5359112 781.544486,63.5359112 C780.220626,63.5359112 779.183794,62.5099225 779.183794,61.2012488 C779.183794,59.8922165 780.220626,58.8665865 781.544486,58.8665865 Z" id="LOGO"></path>
        </g>
    </g>
</svg>